Coordinates
version=1
nRows=41
nColumns=38
inDegrees=no

Units are S.I. units (second, meters, Newtons, ...)
If the header above contains a line with 'inDegrees', this indicates whether rotational values are in degrees (yes) or radians (no).

endheader
time	pelvis_tilt	pelvis_list	pelvis_rotation	pelvis_tx	pelvis_ty	pelvis_tz	hip_flexion_r	hip_adduction_r	hip_rotation_r	knee_angle_r	ankle_angle_r	subtalar_angle_r	mtp_angle_r	hip_flexion_l	hip_adduction_l	hip_rotation_l	knee_angle_l	ankle_angle_l	subtalar_angle_l	mtp_angle_l	lumbar_extension	lumbar_bending	lumbar_rotation	arm_flex_r	arm_add_r	arm_rot_r	elbow_flex_r	pro_sup_r	wrist_flex_r	wrist_dev_r	arm_flex_l	arm_add_l	arm_rot_l	elbow_flex_l	pro_sup_l	wrist_flex_l	wrist_dev_l
5	2.8623	1.43139	-1.32452	0.68664	0.246459	0.942733	-0.125379	-0.0213178	-0.323551	0	-0.167182	0	0	-0.128113	-0.126436	-0.331755	0	-0.152063	0	0	-0.40745	0.00289698	0.0639527	0.414111	-0.591673	0.352966	1.21423	0.483862	0	0	0.392487	-0.411608	0.146483	1.36236	0.69985	0	0
5.01	2.85891	1.43086	-1.32152	0.686867	0.246358	0.94282	-0.125294	-0.0210655	-0.323903	0	-0.166905	0	0	-0.128073	-0.126991	-0.331016	0	-0.150553	0	0	-0.408224	0.00329083	0.063972	0.41434	-0.591377	0.352603	1.21516	0.486629	0	0	0.392353	-0.411426	0.144757	1.36291	0.703413	0	0
5.02	2.86842	1.42439	-1.32772	0.68678	0.247516	0.943059	-0.134063	-0.020247	-0.322981	0	-0.168323	0	0	-0.134414	-0.128277	-0.333106	4.92576e-05	-0.147415	0	0	-0.41447	0.00118909	0.0583358	0.412806	-0.58805	0.352825	1.21414	0.484866	0	0	0.39097	-0.433243	0.166706	1.37721	0.696462	0	0
5.03	2.85109	1.42904	-1.31158	0.68663	0.247846	0.942801	-0.127766	-0.0194105	-0.321836	0	-0.16836	0	0	-0.127283	-0.129878	-0.334589	0.00316085	-0.144032	0	0	-0.407484	0.00458605	0.0614024	0.410629	-0.589227	0.351973	1.21468	0.482085	0	0	0.389862	-0.412162	0.14169	1.36493	0.704653	0	0
5.04	2.84787	1.42898	-1.30894	0.686738	0.247855	0.94277	-0.126753	-0.0189394	-0.32174	0	-0.167649	0	0	-0.121046	-0.132656	-0.339857	0.0153951	-0.137504	0	0	-0.407942	0.00435069	0.0613053	0.411585	-0.588282	0.352235	1.21446	0.482063	0	0	0.389968	-0.413195	0.140869	1.36635	0.704962	0	0
5.05	2.8462	1.42766	-1.30762	0.686777	0.247892	0.942861	-0.127261	-0.0184369	-0.321782	0	-0.16701	0	0	-0.118531	-0.13477	-0.339423	0.0225942	-0.13525	0	0	-0.409854	0.00438511	0.0611874	0.412536	-0.587876	0.353012	1.21492	0.481805	0	0	0.390367	-0.414403	0.140686	1.36795	0.701839	0	0
5.06	2.83962	1.42701	-1.30157	0.686867	0.24779	0.942846	-0.126551	-0.0173458	-0.321665	0	-0.166136	0	0	-0.111457	-0.138795	-0.344876	0.0373189	-0.128072	0	0	-0.411247	0.00477058	0.0615806	0.413692	-0.58755	0.353459	1.21482	0.482218	0	0	0.391284	-0.415409	0.140404	1.36914	0.702753	0	0
5.07	2.83253	1.42619	-1.29501	0.686973	0.24764	0.942819	-0.125859	-0.0160575	-0.32173	0	-0.164998	0	0	-0.104013	-0.143253	-0.35031	0.0530662	-0.120547	0	0	-0.412943	0.00521701	0.0622901	0.414978	-0.587331	0.353575	1.21407	0.48366	0	0	0.392851	-0.416687	0.141291	1.37017	0.702412	0	0
5.08	2.82354	1.4255	-1.28651	0.687101	0.247412	0.942749	-0.124779	-0.0144653	-0.322059	0	-0.163677	0	0	-0.095973	-0.148215	-0.355743	0.0694468	-0.11276	0	0	-0.414449	0.00585813	0.0630531	0.416292	-0.586955	0.353681	1.21363	0.484355	0	0	0.394615	-0.418332	0.142744	1.37121	0.701454	0	0
5.09	2.81238	1.42489	-1.27547	0.687184	0.247141	0.942643	-0.123362	-0.0126009	-0.322715	0	-0.162434	0	0	-0.0874116	-0.153684	-0.361227	0.0861779	-0.104987	0	0	-0.415813	0.00689646	0.0633339	0.417854	-0.586278	0.353952	1.21356	0.483669	0	0	0.396249	-0.42022	0.144059	1.37236	0.700598	0	0
5.1	2.79276	1.42667	-1.25576	0.687348	0.246798	0.942272	-0.118755	-0.0101862	-0.323015	0	-0.161066	0	0	-0.0726694	-0.161339	-0.371941	0.109749	-0.092756	0	0	-0.415084	0.00999958	0.0601719	0.42395	-0.583954	0.359455	1.21263	0.483294	0	0	0.405286	-0.408455	-0.0309194	1.33688	1.5708	0	0
5.11	2.7829	1.42598	-1.24531	0.687299	0.246543	0.942091	-0.117415	-0.00873042	-0.323446	0	-0.159469	0	0	-0.0652934	-0.166214	-0.375091	0.123725	-0.0868051	0	0	-0.416435	0.0115178	0.0592997	0.426131	-0.583024	0.359988	1.21199	0.483659	0	0	0.406573	-0.409739	-0.0317311	1.33778	1.5708	0	0
5.12	2.77505	1.42654	-1.23515	0.687289	0.246804	0.941825	-0.124193	-0.00675173	-0.326666	0	-0.157131	0	0	-0.0592759	-0.17443	-0.384425	0.134884	-0.0778702	0	0	-0.415094	0.0109212	0.0604278	0.422765	-0.583056	0.355123	1.2111	0.483542	0	0	0.399348	-0.424038	0.140851	1.37108	0.788619	0	0
5.13	2.76338	1.42485	-1.22293	0.687147	0.24647	0.941659	-0.118392	-0.0066935	-0.32841	0	-0.153635	0	0	-0.0522987	-0.180214	-0.388226	0.149856	-0.0714718	0	0	-0.417587	0.0133128	0.0602605	0.423793	-0.582441	0.354155	1.21126	0.48352	0	0	0.40218	-0.42761	0.147666	1.37245	0.755466	0	0
5.14	2.76495	1.41951	-1.22319	0.687134	0.245911	0.941584	-0.116871	-0.00682211	-0.332343	0.00605177	-0.148727	0	0	-0.0488413	-0.186103	-0.391822	0.166095	-0.064043	0	0	-0.426336	0.0127147	0.0569056	0.427924	-0.580173	0.354627	1.21067	0.483786	0	0	0.404798	-0.447442	0.168694	1.38637	0.72755	0	0
5.15	2.75625	1.41778	-1.21349	0.686896	0.245589	0.941341	-0.110793	-0.00729763	-0.337721	0.0196963	-0.142573	0	0	-0.0416492	-0.191634	-0.394091	0.181613	-0.0573855	0	0	-0.429175	0.0150088	0.0562987	0.429129	-0.579805	0.353451	1.21071	0.484667	0	0	0.407143	-0.44987	0.172659	1.38825	0.707445	0	0
5.16	2.74806	1.41585	-1.20399	0.686583	0.245263	0.941098	-0.104958	-0.00786271	-0.343671	0.0334512	-0.136072	0	0	-0.0345954	-0.197145	-0.395473	0.197115	-0.0507456	0	0	-0.432233	0.017549	0.0553612	0.430263	-0.5797	0.352647	1.21185	0.484885	0	0	0.409341	-0.451365	0.174921	1.38909	0.693945	0	0
5.17	2.74031	1.41359	-1.19467	0.686205	0.244952	0.940841	-0.0998429	-0.00835722	-0.349926	0.0466809	-0.129717	0	0	-0.027956	-0.202603	-0.395767	0.212364	-0.0441419	0	0	-0.435532	0.0203866	0.0539375	0.431942	-0.57953	0.352643	1.21255	0.485015	0	0	0.411312	-0.452766	0.176605	1.38964	0.684715	0	0
5.18	2.73356	1.41114	-1.18618	0.685771	0.24468	0.940548	-0.0954129	-0.00884957	-0.355886	0.0592727	-0.12339	0	0	-0.0216336	-0.207837	-0.395137	0.227446	-0.0378838	0	0	-0.438917	0.0233617	0.0521654	0.434087	-0.579472	0.35357	1.21277	0.485118	0	0	0.413223	-0.454219	0.178023	1.39028	0.678092	0	0
5.19	2.72881	1.40895	-1.17959	0.685286	0.244458	0.940162	-0.0911435	-0.00983514	-0.361371	0.07158	-0.116664	0	0	-0.0152647	-0.212462	-0.393619	0.242256	-0.0315318	0	0	-0.441945	0.0260859	0.0502251	0.436159	-0.579418	0.354576	1.21258	0.485059	0	0	0.415012	-0.455527	0.179191	1.391	0.673597	0	0
5.2	2.72593	1.40662	-1.1749	0.684797	0.24424	0.939743	-0.0871179	-0.0112167	-0.366519	0.0840555	-0.109718	0	0	-0.00922758	-0.216878	-0.392373	0.256801	-0.0245724	0	0	-0.445111	0.0285079	0.0483938	0.438138	-0.579278	0.355526	1.21218	0.484985	0	0	0.416896	-0.456569	0.180218	1.39158	0.670551	0	0
5.21	2.72377	1.40431	-1.171	0.684318	0.244011	0.939297	-0.0827374	-0.0128766	-0.371247	0.0972668	-0.102656	0	0	-0.00314369	-0.221105	-0.390672	0.271371	-0.0182602	0	0	-0.448264	0.0306768	0.046788	0.44024	-0.579214	0.356577	1.21106	0.485135	0	0	0.419064	-0.457203	0.181252	1.39161	0.668047	0	0
5.22	2.74935	1.4295	-1.19207	0.681634	0.243115	0.935779	-0.0421766	-0.0387017	-0.382343	0.132493	-0.0808248	0	0	0.0333229	-0.203998	-0.372558	0.288329	-0.0130398	0	0	-0.426076	0.0229126	0.0367392	0.441212	-0.581238	0.358231	1.20948	0.48534	0	0	0.41787	-0.453771	0.179734	1.38936	0.666732	0	0
5.23	2.74516	1.42981	-1.18659	0.681081	0.242771	0.934976	-0.030778	-0.0436864	-0.390048	0.154856	-0.0691507	0	0	0.0425259	-0.206688	-0.369339	0.303242	-0.00728898	0	0	-0.426638	0.0241656	0.0351556	0.443115	-0.581343	0.359625	1.20842	0.484984	0	0	0.419606	-0.45363	0.179939	1.38892	0.666224	0	0
5.24	2.74517	1.42883	-1.18553	0.680538	0.242431	0.934249	-0.0210156	-0.0486306	-0.395197	0.176772	-0.0584572	0	0	0.0499125	-0.209256	-0.36664	0.317807	-0.00127818	0	0	-0.428871	0.0252297	0.0337847	0.44539	-0.581865	0.361376	1.20772	0.485389	0	0	0.421567	-0.453702	0.18026	1.38911	0.665725	0	0
5.25	2.74915	1.42788	-1.1887	0.680009	0.242094	0.933463	-0.0106294	-0.0545097	-0.399016	0.200138	-0.0474089	0	0	0.0570764	-0.211268	-0.364426	0.332488	0.00496694	0	0	-0.431368	0.0255972	0.0325249	0.447379	-0.582413	0.362736	1.20771	0.484879	0	0	0.423819	-0.45406	0.18081	1.38945	0.665402	0	0
5.26	2.75293	1.42676	-1.19179	0.679444	0.241743	0.932577	0.000426598	-0.0607311	-0.401976	0.225031	-0.0361683	0	0	0.0641404	-0.213287	-0.362099	0.347319	0.0113592	0	0	-0.434057	0.0260676	0.0316351	0.449201	-0.583406	0.363961	1.20811	0.484144	0	0	0.426398	-0.454418	0.181548	1.39014	0.66531	0	0
5.27	2.75619	1.42569	-1.19459	0.678912	0.241369	0.93156	0.012244	-0.0671774	-0.404162	0.251213	-0.0247778	0	0	0.0714189	-0.215331	-0.359281	0.362474	0.0176464	0	0	-0.4367	0.0264172	0.0312176	0.450547	-0.584459	0.364281	1.20876	0.484173	0	0	0.429325	-0.454654	0.182532	1.39108	0.665522	0	0
5.28	2.75911	1.42652	-1.1974	0.678414	0.240926	0.930204	0.0282081	-0.0756245	-0.4074	0.282287	-0.0105981	0	0	0.0819024	-0.217331	-0.35697	0.380434	0.0252634	0	0	-0.437436	0.0259126	0.0310638	0.451198	-0.58524	0.363081	1.20927	0.491572	0	0	0.432439	-0.454755	0.183664	1.39132	0.671433	0	0
5.29	2.76593	1.42441	-1.20412	0.677946	0.240562	0.929078	0.0386255	-0.0817985	-0.406147	0.307589	-0.00075902	0	0	0.0883062	-0.219686	-0.354502	0.396714	0.0322619	0	0	-0.441284	0.0258262	0.0310501	0.452056	-0.586308	0.362692	1.21139	0.488459	0	0	0.43569	-0.45532	0.185083	1.39232	0.669346	0	0
5.3	2.77317	1.42343	-1.21154	0.677475	0.240172	0.927679	0.0518229	-0.0894317	-0.405267	0.336388	0.0110223	0	0	0.0964795	-0.221707	-0.352247	0.414289	0.0402026	0	0	-0.443886	0.025199	0.0309301	0.452794	-0.587257	0.362057	1.21361	0.485076	0	0	0.438758	-0.455981	0.186451	1.39311	0.667738	0	0
5.31	2.74141	1.39137	-1.17816	0.678724	0.240991	0.929701	0.0204311	-0.0672961	-0.40309	0.334049	0.00724077	0	0	0.0715232	-0.248672	-0.362035	0.428444	0.0491124	0	0	-0.473586	0.0390961	0.0364335	0.453603	-0.585799	0.360472	1.21489	0.481712	0	0	0.443902	-0.45997	0.189928	1.395	0.665177	0	0
5.32	2.74934	1.38753	-1.18577	0.678274	0.240712	0.928377	0.0290403	-0.0728729	-0.399875	0.359362	0.016767	0	0	0.0764138	-0.251896	-0.359934	0.445812	0.057699	0	0	-0.478791	0.039432	0.0360207	0.454974	-0.586633	0.36034	1.21644	0.479116	0	0	0.44734	-0.461325	0.192082	1.39558	0.662938	0	0
5.33	2.80135	1.42247	-1.24043	0.676182	0.239035	0.922455	0.0968745	-0.114928	-0.397396	0.42952	0.0482361	0	0	0.124637	-0.227045	-0.346365	0.471316	0.0668873	0	0	-0.448924	0.0217794	0.0294072	0.456169	-0.589305	0.361744	1.2178	0.473547	0	0	0.448447	-0.459669	0.19257	1.39426	0.65812	0	0
5.34	2.76998	1.38851	-1.20653	0.677394	0.240107	0.924387	0.0619832	-0.0923781	-0.395362	0.425983	0.0447975	0	0	0.0972686	-0.253987	-0.354581	0.485438	0.0759222	0	0	-0.480033	0.0359481	0.033866	0.45726	-0.587119	0.360638	1.21791	0.474918	0	0	0.453854	-0.464073	0.196831	1.3949	0.659039	0	0
5.35	2.78033	1.38427	-1.21664	0.677015	0.239937	0.92269	0.0703806	-0.0979861	-0.390508	0.451824	0.0544707	0	0	0.102565	-0.256938	-0.351536	0.504767	0.0848863	0	0	-0.485179	0.0358696	0.0332797	0.459088	-0.587622	0.361243	1.21904	0.47488	0	0	0.457525	-0.465885	0.199711	1.39513	0.656941	0	0
5.36	2.7883	1.38301	-1.2249	0.676699	0.239721	0.920492	0.0831735	-0.104831	-0.385884	0.480114	0.066281	0	0	0.112409	-0.259463	-0.347842	0.52642	0.0942986	0	0	-0.487122	0.0350261	0.0328868	0.460802	-0.588084	0.361833	1.21974	0.47386	0	0	0.460747	-0.467539	0.202201	1.39494	0.654994	0	0
5.37	2.79325	1.38176	-1.23018	0.676423	0.23951	0.918106	0.0955896	-0.110653	-0.38125	0.507158	0.0781764	0	0	0.123461	-0.262878	-0.343517	0.549759	0.103902	0	0	-0.488784	0.034755	0.0327422	0.462678	-0.588745	0.362337	1.22034	0.472969	0	0	0.464018	-0.469125	0.204753	1.39421	0.654192	0	0
5.38	2.79103	1.37985	-1.22909	0.676233	0.239149	0.915658	0.107747	-0.114072	-0.375174	0.533004	0.089019	0	0	0.135058	-0.268275	-0.339246	0.574544	0.113727	0	0	-0.491097	0.0357466	0.0337952	0.465388	-0.589785	0.362949	1.22084	0.474977	0	0	0.467882	-0.470026	0.207349	1.39295	0.652806	0	0
5.39	2.7976	1.37832	-1.23491	0.67589	0.239185	0.912945	0.119181	-0.120674	-0.373202	0.56065	0.102602	0	0	0.146532	-0.271369	-0.333446	0.599462	0.124765	0	0	-0.492433	0.0355944	0.0326319	0.46656	-0.589697	0.360359	1.21987	0.494374	0	0	0.471058	-0.471469	0.210227	1.39172	0.651153	0	0
5.4	2.79936	1.37636	-1.23687	0.675636	0.239163	0.91025	0.130702	-0.125492	-0.368693	0.587388	0.114052	0	0	0.157153	-0.275121	-0.327528	0.623573	0.135709	0	0	-0.494734	0.0348285	0.0357142	0.480435	-0.55855	0.142544	1.11239	1.5708	0	0	0.478131	-0.470977	0.216759	1.38904	0.655367	0	0
